<?xml version="1.0" encoding="UTF-8" standalone="no"?>

<!--
 | Lowercase Greek letters omega and xi, the 24th and 14th letters of the Greek
 | alphabet. Times New Roman font.
 |
 | @see http://en.wikipedia.org/wiki/File:Omega_uc_lc.svg
 | @see http://en.wikipedia.org/w/index.php?title=File:Xi_uc_lc.svg
 |
 | Created with Inkscape (http://www.inkscape.org/)
-->

<svg
   xmlns:dc="http://purl.org/dc/elements/1.1/"
   xmlns:cc="http://creativecommons.org/ns#"
   xmlns:rdf="http://www.w3.org/1999/02/22-rdf-syntax-ns#"
   xmlns:svg="http://www.w3.org/2000/svg"
   xmlns="http://www.w3.org/2000/svg"
   version="1.0"
   width="2096"
   height="2096"
   viewBox="0 -410 2151.8934 1991.2001"
   id="svg2">
  <metadata
     id="metadata15">
    <rdf:RDF>
      <cc:Work
         rdf:about="">
        <dc:format>image/svg+xml</dc:format>
        <dc:type
           rdf:resource="http://purl.org/dc/dcmitype/StillImage" />
        <dc:title></dc:title>
      </cc:Work>
    </rdf:RDF>
  </metadata>
  <defs
     id="defs13" />
  <text
     x="-926.5921"
     y="-721.18494"
     id="text2171"
     xml:space="preserve"
     style="font-size:12px;font-style:normal;font-weight:normal;fill:#000000;fill-opacity:1;stroke:none;font-family:Lello"><tspan
       x="-926.5921"
       y="-721.18494"
       id="tspan2173" /></text>
  <path
     d="m 1620.2431,-352.2498 0,38.04227 c -65.4063,9.34509 -98.1093,38.04361 -98.109,86.09566 -3e-4,52.05909 37.3746,85.42946 112.1246,100.11123 42.7137,-46.04992 93.103,-86.59493 151.1679,-121.63515 58.064,-35.03758 109.7881,-52.55702 155.1725,-52.55839 34.0371,0.001 51.056,15.35174 51.0567,46.05116 -7e-4,40.71319 -33.3711,80.75764 -100.1112,120.13348 -66.7414,39.37825 -146.4966,59.73419 -239.2659,61.06786 -54.7278,55.39597 -82.0915,114.12784 -82.0912,176.19578 -3e-4,65.40691 32.0352,119.13322 96.1068,161.17908 96.1063,-52.72438 197.5522,-79.08698 304.3381,-79.08787 73.4141,8.9e-4 110.1216,18.35459 110.1224,55.06117 -8e-4,24.69491 -19.3557,45.71825 -58.0645,63.07008 -38.7104,17.35336 -94.439,26.02966 -167.1858,26.02892 -60.7347,7.4e-4 -119.8002,-4.33741 -177.1969,-13.01446 -175.5286,112.12522 -263.2927,239.26636 -263.2925,381.4238 -2e-4,62.73668 22.0243,114.79447 66.0734,156.17354 44.0487,41.3795 115.4613,62.0691 214.238,62.069 17.3522,10e-5 40.7115,-1.001 70.0779,-3.0034 76.7514,-6.0065 128.4754,-9.0098 155.1724,-9.01 80.7557,2e-4 139.4875,26.0291 176.1958,78.0868 36.7066,52.05784 55.0603,117.13014 55.0612,195.21684 -9e-4,109.4547 -30.0343,192.7138 -90.1001,249.7775 -60.0675,57.063 -127.8094,85.5947 -203.2259,85.5951 -40.045,-4e-4 -73.0817,-8.1762 -99.1101,-24.5272 -26.0294,-16.3519 -39.0438,-38.5432 -39.0434,-66.574 -4e-4,-20.0226 6.8405,-36.0404 20.5228,-48.0534 13.6814,-12.0136 29.1986,-18.0203 46.5518,-18.02 12.0128,-3e-4 29.0317,3.6704 51.0567,11.0122 41.3787,13.3479 74.4154,20.0219 99.1101,20.0223 45.3831,-4e-4 81.0894,-15.6844 107.119,-47.0523 26.0281,-31.3684 39.0426,-70.7455 39.0434,-118.1313 -8e-4,-33.3705 -10.0119,-62.9033 -30.0333,-88.5983 -20.0231,-25.6953 -52.726,-38.5429 -98.1091,-38.5428 -20.0229,-10e-5 -44.0496,0.6673 -72.08,2.0022 -83.4266,4.6718 -139.1551,7.0077 -167.1858,7.0078 -118.799,-10e-5 -213.5709,-34.7053 -284.3159,-104.11574 -70.7454,-69.4103 -106.118,-158.50925 -106.1179,-267.29702 -10e-5,-170.856 94.1044,-314.01492 282.3137,-429.47719 -68.076,-54.05925 -102.1137,-115.79444 -102.1135,-185.20578 -2e-4,-65.40499 28.6983,-130.47723 86.0957,-195.21691 -95.4397,-24.02553 -143.1593,-72.74628 -143.1591,-146.16241 -2e-4,-82.08983 57.0632,-124.13651 171.1902,-126.14015 l 0,0 z"
     id="text-xi"
     style="font-size:2050.27807617px;font-style:normal;font-weight:normal;fill:#000000;fill-opacity:1;stroke:none;font-family:Times New Roman" />
  <path
     d="m 600.6674,882.69886 c -58.0651,132.14694 -146.8303,198.22034 -266.2959,198.22034 -83.4263,0 -160.0114,-38.5428 -229.7553,-115.62854 C 34.872,888.20516 -9.999964e-5,777.24866 0,632.4208 -9.999964e-5,513.62267 20.8564,416.68172 62.5695,341.59766 104.2824,266.51502 158.8429,208.95113 226.2514,168.90578 293.6593,128.86222 383.4256,108.83999 495.5506,108.83905 l 0,37.04115 c -98.7769,9.1e-4 -175.5288,40.71278 -230.2558,122.13571 -54.7278,81.4245 -82.0915,196.88601 -82.0912,346.38487 -3e-4,151.50195 17.8529,255.28388 53.5595,311.34598 35.706,56.0623 77.9195,84.09344 126.6407,84.09344 31.3677,0 61.9016,-9.6774 91.6018,-29.03234 29.6991,-19.3547 50.5556,-39.8775 62.5695,-61.5684 12.0127,-21.6906 30.3664,-66.24 55.0612,-133.64847 -42.0474,-88.09753 -63.0707,-181.20089 -63.0701,-279.31035 -6e-4,-148.83134 30.3664,-223.24728 91.1012,-223.24805 60.7334,7.7e-4 91.1005,68.74375 91.1012,206.22914 -7e-4,94.77244 -22.0252,193.54876 -66.0734,296.32926 48.0527,149.49957 116.7956,224.24921 206.2292,224.24921 50.0546,0 93.2693,-26.19574 129.644,-78.58734 36.3727,-52.3914 54.5595,-151.33457 54.5606,-296.82984 0,-121.46775 -11.8475,-214.40426 -35.5395,-278.80978 C 956.8955,291.2091 921.6898,240.81983 874.9722,204.44528 828.2527,168.07241 771.1894,148.55074 703.782,145.8802 l 0,-37.04115 c 112.1237,9.4e-4 201.89,20.35687 269.2992,61.06785 67.4071,40.71275 121.8008,98.10979 163.1813,172.19132 41.3781,74.08295 62.0677,169.85593 62.069,287.31924 0,146.83009 -33.5385,258.7877 -100.6118,335.8732 -67.0757,77.08574 -145.3292,115.62854 -234.7609,115.62854 -122.8039,0 -210.2343,-66.0734 -262.2914,-198.22034 l 0,0 z"
     id="text-omega"
     style="font-size:2050.27807617px;font-style:normal;font-weight:normal;fill:#000000;fill-opacity:1;stroke:none;font-family:Times New Roman" />
</svg>
